<?xml version="1.0" encoding="UTF-8"?>
<!DOCTYPE svg PUBLIC "-//W3C//DTD SVG 1.1//EN" "http://www.w3.org/Graphics/SVG/1.1/DTD/svg11.dtd">
<svg width="1500" height="1500" xmlns="http://www.w3.org/2000/svg" xmlns:xlink="http://www.w3.org/1999/xlink">
	<title>Mensch ärgere Dich nicht</title>
	<desc>Mensch ärgere Dich nicht</desc>

	<defs>
		<circle id="cw" cx="0" cy="0" r="50" fill="white" stroke="black" stroke-width="7"/>
		<circle id="cy" cx="0" cy="0" r="50" fill="yellow" stroke="black" stroke-width="7"/>
		<circle id="cg" cx="0" cy="0" r="50" fill="green" stroke="black" stroke-width="7"/>
		<circle id="cr" cx="0" cy="0" r="50" fill="red" stroke="black" stroke-width="7"/>
		<circle id="cb" cx="0" cy="0" r="50" fill="black" stroke="black" stroke-width="7"/>
		<circle id="csy" cx="0" cy="0" r="40" fill="yellow" stroke="black" stroke-width="7"/>
		<circle id="csg" cx="0" cy="0" r="40" fill="green" stroke="black" stroke-width="7"/>
		<circle id="csr" cx="0" cy="0" r="40" fill="red" stroke="black" stroke-width="7"/>
		<circle id="csb" cx="0" cy="0" r="40" fill="black" stroke="black" stroke-width="7"/>
		<line id="lh" x1="0" y1="0" x2="25" y2="0" stroke="black" stroke-width="7"/>
		<line id="lv" x1="0" y1="0" x2="0" y2="25" stroke="black" stroke-width="7"/>

		<symbol id="arrow">
			<desc>arrow</desc>
			<line x1="750" y1="750" x2="872" y2="750" stroke="black" stroke-width="2"/>
			<line x1="750" y1="750" x2="742" y2="742" stroke="black" stroke-width="2"/>
			<line x1="750" y1="750" x2="742" y2="758" stroke="black" stroke-width="2"/>
			<line x1="755" y1="750" x2="747" y2="742" stroke="black" stroke-width="2"/>
			<line x1="755" y1="750" x2="747" y2="758" stroke="black" stroke-width="2"/>
			<line x1="760" y1="750" x2="752" y2="742" stroke="black" stroke-width="2"/>
			<line x1="760" y1="750" x2="752" y2="758" stroke="black" stroke-width="2"/>
			<line x1="765" y1="750" x2="757" y2="742" stroke="black" stroke-width="2"/>
			<line x1="765" y1="750" x2="757" y2="758" stroke="black" stroke-width="2"/>
			<line x1="770" y1="750" x2="762" y2="742" stroke="black" stroke-width="2"/>
			<line x1="770" y1="750" x2="762" y2="758" stroke="black" stroke-width="2"/>
			<path d="M 875,750 A 70 20 0 0 1 852,742 l 8,8"/>
			<path d="M 875,750 A 70 20 0 0 0 852,758 l 8,-8"/>
		</symbol>

		<symbol id="ya">
			<desc>yellow A</desc>
			<path d="M 722,774 l 18,-56 l 20,0 l 18,56 l -8,0 l -6,-16 l -28,0 l -6,16 l -8,0"/>
			<path d="M 739,750 l 22,0 l -8,-24 l -6,0 l -8,24" fill="yellow"/>
		</symbol>

		<symbol id="ra">
			<desc>red A</desc>
			<path d="M 722,774 l 18,-56 l 20,0 l 18,56 l -8,0 l -6,-16 l -28,0 l -6,16 l -8,0"/>
			<path d="M 739,750 l 22,0 l -8,-24 l -6,0 l -8,24" fill="red"/>
		</symbol>

		<symbol id="ga">
			<desc>green A</desc>
			<path d="M 722,774 l 18,-56 l 20,0 l 18,56 l -8,0 l -6,-16 l -28,0 l -6,16 l -8,0"/>
			<path d="M 739,750 l 22,0 l -8,-24 l -6,0 l -8,24" fill="green"/>
		</symbol>

		<symbol id="ba">
			<desc>black A</desc>
			<path d="M 722,774 l 18,-56 l 20,0 l 18,56 l -8,0 l -6,-16 l -28,0 l -6,16 l -8,0" fill="white"/>
			<path d="M 739,750 l 22,0 l -8,-24 l -6,0 l -8,24" fill="black"/>
		</symbol>

		<symbol id="bb">
			<desc>black B</desc>
			<path d="M 740,770 l 0,-40 l 8,0 A 12,12 0 0 1 750,754 l 0,-8 A 12,12 0 0 1 750,770 l -8,0"/>
			<path d="M 747,763 l 0,-9 l 1,0 A 6,4.5 0 0 1 748,763 l -1,0" fill="#ffff80"/>
			<path d="M 747,746 l 0,-9 l 1,0 A 6,4.5 0 0 1 748,746 l -1,0" fill="#ffff80"/>
		</symbol>

	</defs>

	<rect x="0" y="0" width="1500" height="1500" fill="#ffff80" stroke="red" stroke-width="35"/>

	<rect x="43" y="43" width="1407" height="1407" fill="none" stroke="black" stroke-width="7"/>
	
	<use x="625" y="125" xlink:href="#cw"/>
	<use x="675" y="125" xlink:href="#lh"/>
	<use x="750" y="125" xlink:href="#cw"/>
	<use x="800" y="125" xlink:href="#lh"/>
	<use x="875" y="125" xlink:href="#cg"/>

	<use x="625" y="175" xlink:href="#lv"/>
	<use x="875" y="175" xlink:href="#lv"/>
	<use x="625" y="250" xlink:href="#cw"/>
	<use x="875" y="250" xlink:href="#cw"/>

	<use x="625" y="300" xlink:href="#lv"/>
	<use x="875" y="300" xlink:href="#lv"/>
	<use x="625" y="375" xlink:href="#cw"/>
	<use x="875" y="375" xlink:href="#cw"/>

	<use x="625" y="425" xlink:href="#lv"/>
	<use x="875" y="425" xlink:href="#lv"/>
	<use x="625" y="500" xlink:href="#cw"/>
	<use x="875" y="500" xlink:href="#cw"/>

	<use x="625" y="550" xlink:href="#lv"/>
	<use x="875" y="550" xlink:href="#lv"/>
	<use x="625" y="625" xlink:href="#cw"/>
	<use x="875" y="625" xlink:href="#cw"/>
	<use x="550" y="625" xlink:href="#lh"/>
	<use x="925" y="625" xlink:href="#lh"/>
	<use x="500" y="625" xlink:href="#cw"/>
	<use x="1000" y="625" xlink:href="#cw"/>
	<use x="425" y="625" xlink:href="#lh"/>
	<use x="1050" y="625" xlink:href="#lh"/>
	<use x="375" y="625" xlink:href="#cw"/>
	<use x="1125" y="625" xlink:href="#cw"/>
	<use x="300" y="625" xlink:href="#lh"/>
	<use x="1175" y="625" xlink:href="#lh"/>
	<use x="250" y="625" xlink:href="#cw"/>
	<use x="1250" y="625" xlink:href="#cw"/>
	<use x="175" y="625" xlink:href="#lh"/>
	<use x="1300" y="625" xlink:href="#lh"/>
	<use x="125" y="625" xlink:href="#cy"/>
	<use x="1375" y="625" xlink:href="#cw"/>
	
	<use x="125" y="675" xlink:href="#lv"/>
	<use x="1375" y="675" xlink:href="#lv"/>
	<use x="125" y="750" xlink:href="#cw"/>
	<use x="1375" y="750" xlink:href="#cw"/>

	<use x="125" y="800" xlink:href="#lv"/>
	<use x="1375" y="800" xlink:href="#lv"/>
	<use x="125" y="875" xlink:href="#cw"/>
	<use x="1375" y="875" xlink:href="#cr"/>
	<use x="250" y="875" xlink:href="#cw"/>
	<use x="1250" y="875" xlink:href="#cw"/>
	<use x="175" y="875" xlink:href="#lh"/>
	<use x="1300" y="875" xlink:href="#lh"/>
	<use x="375" y="875" xlink:href="#cw"/>
	<use x="1125" y="875" xlink:href="#cw"/>
	<use x="300" y="875" xlink:href="#lh"/>
	<use x="1175" y="875" xlink:href="#lh"/>
	<use x="500" y="875" xlink:href="#cw"/>
	<use x="1000" y="875" xlink:href="#cw"/>
	<use x="425" y="875" xlink:href="#lh"/>
	<use x="1050" y="875" xlink:href="#lh"/>
	<use x="625" y="875" xlink:href="#cw"/>
	<use x="875" y="875" xlink:href="#cw"/>
	<use x="550" y="875" xlink:href="#lh"/>
	<use x="925" y="875" xlink:href="#lh"/>

	<use x="625" y="925" xlink:href="#lv"/>
	<use x="875" y="925" xlink:href="#lv"/>
	<use x="625" y="1000" xlink:href="#cw"/>
	<use x="875" y="1000" xlink:href="#cw"/>

	<use x="625" y="1050" xlink:href="#lv"/>
	<use x="875" y="1050" xlink:href="#lv"/>
	<use x="625" y="1125" xlink:href="#cw"/>
	<use x="875" y="1125" xlink:href="#cw"/>

	<use x="625" y="1175" xlink:href="#lv"/>
	<use x="875" y="1175" xlink:href="#lv"/>
	<use x="625" y="1250" xlink:href="#cw"/>
	<use x="875" y="1250" xlink:href="#cw"/>

	<use x="625" y="1300" xlink:href="#lv"/>
	<use x="875" y="1300" xlink:href="#lv"/>
	<use x="625" y="1375" xlink:href="#cb"/>
	<use x="875" y="1375" xlink:href="#cw"/>
	<use x="675" y="1375" xlink:href="#lh"/>
	<use x="750" y="1375" xlink:href="#cw"/>
	<use x="800" y="1375" xlink:href="#lh"/>

	<use x="250" y="750" xlink:href="#csy"/>
	<use x="375" y="750" xlink:href="#csy"/>
	<use x="500" y="750" xlink:href="#csy"/>
	<use x="625" y="750" xlink:href="#csy"/>

	<use x="875" y="750" xlink:href="#csr"/>
	<use x="1000" y="750" xlink:href="#csr"/>
	<use x="1125" y="750" xlink:href="#csr"/>
	<use x="1250" y="750" xlink:href="#csr"/>

	<use x="750" y="250" xlink:href="#csg"/>
	<use x="750" y="375" xlink:href="#csg"/>
	<use x="750" y="500" xlink:href="#csg"/>
	<use x="750" y="625" xlink:href="#csg"/>
	
	<use x="750" y="875" xlink:href="#csb"/>
	<use x="750" y="1000" xlink:href="#csb"/>
	<use x="750" y="1125" xlink:href="#csb"/>
	<use x="750" y="1250" xlink:href="#csb"/>

	<use x="125" y="125" xlink:href="#csy"/>
	<use x="250" y="125" xlink:href="#csy"/>
	<use x="125" y="250" xlink:href="#csy"/>
	<use x="250" y="250" xlink:href="#csy"/>

	<use x="1375" y="125" xlink:href="#csg"/>
	<use x="1250" y="125" xlink:href="#csg"/>
	<use x="1250" y="250" xlink:href="#csg"/>
	<use x="1375" y="250" xlink:href="#csg"/>

	<use x="125" y="1250" xlink:href="#csb"/>
	<use x="250" y="1250" xlink:href="#csb"/>
	<use x="125" y="1375" xlink:href="#csb"/>
	<use x="250" y="1375" xlink:href="#csb"/>

	<use x="1375" y="1250" xlink:href="#csr"/>
	<use x="1250" y="1250" xlink:href="#csr"/>
	<use x="1250" y="1375" xlink:href="#csr"/>
	<use x="1375" y="1375" xlink:href="#csr"/>

	<use xlink:href="#arrow" transform="translate(-650,-240)"/>
	<use xlink:href="#arrow" transform="translate(650,240) rotate(180,750,750)"/>
	<use xlink:href="#arrow" transform="translate(240,-650) rotate(90,750,750)"/>
	<use xlink:href="#arrow" transform="translate(-240,650) rotate(270,750,750)"/>

	<use xlink:href="#ya" transform="translate(-625,-125) rotate(90,750,750)"/>
	<use xlink:href="#ga" transform="translate(125,-625) rotate(180,750,750)"/>
	<use xlink:href="#ra" transform="translate(625,125) rotate(270,750,750)"/>
	<use xlink:href="#ba" transform="translate(-125,625)"/>

	<use xlink:href="#bb" transform="translate(-563,563)"/>
	<use xlink:href="#bb" transform="translate(563,563)"/>
	<use xlink:href="#bb" transform="translate(-563,-563) rotate(180,750,750)"/>
	<use xlink:href="#bb" transform="translate(563,-563) rotate(180,750,750)"/>
</svg>